Coordinates
version=1
nRows=32
nColumns=22
inDegrees=yes

Units are S.I. units (second, meters, Newtons, ...)
If the header above contains a line with 'inDegrees', this indicates whether rotational values are in degrees (yes) or radians (no).

endheader
time	pelvis_tilt	pelvis_list	pelvis_rotation	pelvis_tx	pelvis_ty	pelvis_tz	hip_flexion_r	hip_adduction_r	hip_rotation_r	knee_angle_r	ankle_angle_r	subtalar_angle_r	hip_flexion_l	hip_adduction_l	hip_rotation_l	knee_angle_l	ankle_angle_l	subtalar_angle_l	lumbar_extension	lumbar_bending	lumbar_rotation
      1.04000000	     -0.56565298	     -1.13491243	    -13.99392463	     -0.71944558	      0.89717828	      0.82649336	     -3.76211992	     -5.00428801	     10.30336164	    -50.67798500	    -23.43127148	     10.73191800	     25.02216812	     -6.42699079	    -23.81053925	    -36.92927118	      8.48966676	    -11.44338407	     -7.40753455	     -3.96862585	      9.44696291
      1.05000000	     -0.45150553	     -0.99797168	    -13.88869787	     -0.70988671	      0.89854444	      0.82413473	     -1.76938612	     -4.74412290	     10.86110303	    -53.75623473	    -24.72429814	     10.09361343	     24.12737870	     -5.87800246	    -23.97547536	    -36.60369521	      9.00578193	    -11.25033642	     -7.46355140	     -4.15800424	      9.02443010
      1.06000000	     -0.31219521	     -0.77301658	    -13.73218008	     -0.70041259	      0.89988181	      0.82171669	      0.21458922	     -4.52760547	     11.37680089	    -56.65858804	    -25.46315924	      9.46839765	     23.19379661	     -5.20165210	    -24.12970451	    -36.17749786	      9.48547200	    -11.07889730	     -7.52599682	     -4.44588989	      8.53523615
      1.07000000	     -0.12572824	     -0.49526024	    -13.50756228	     -0.69094777	      0.90126670	      0.81919308	      2.12476635	     -4.34393897	     11.82455864	    -59.32719894	    -25.65496972	      8.98067211	     22.18724779	     -4.41288155	    -24.23446077	    -35.64416133	      9.94368117	    -10.94332666	     -7.61955338	     -4.78923961	      7.95467374
      1.08000000	      0.09563442	     -0.18687156	    -13.20677780	     -0.68150135	      0.90270049	      0.81653204	      3.96248874	     -4.18974577	     12.18687066	    -61.75146626	    -25.32013089	      8.64317335	     21.12877955	     -3.54066308	    -24.26510497	    -35.02627150	     10.34055308	    -10.84150627	     -7.74635144	     -5.15726680	      7.28929017
      1.09000000	      0.33961307	      0.11249113	    -12.83670909	     -0.67207362	      0.90420220	      0.81374439	      5.72919204	     -4.04658082	     12.43864234	    -63.91036046	    -24.55336273	      8.48423989	     20.02680290	     -2.63429190	    -24.20348630	    -34.33976048	     10.68664969	    -10.77038651	     -7.90095485	     -5.50020858	      6.56141373
      1.10000000	      0.58538998	      0.37046752	    -12.40410948	     -0.66272035	      0.90576319	      0.81085740	      7.44758046	     -3.89190890	     12.56850233	    -65.79973309	    -23.45174437	      8.43916724	     18.90829856	     -1.74617343	    -24.03949538	    -33.61270696	     10.98024734	    -10.72496007	     -8.07554238	     -5.78289946	      5.79326581
      1.11000000	      0.81161411	      0.55739233	    -11.91140367	     -0.65347486	      0.90737360	      0.80788866	      9.13194183	     -3.70072197	     12.56656566	    -67.40456663	    -22.07748951	      8.45986382	     17.79443645	     -0.92238018	    -23.77308931	    -32.86051822	     11.23914301	    -10.69815575	     -8.25815635	     -5.96801535	      5.00503731
      1.12000000	      1.00762216	      0.66150494	    -11.36305506	     -0.64435916	      0.90901353	      0.80485609	     10.79068375	     -3.45964268	     12.44266495	    -68.71938692	    -20.49689839	      8.49143670	     16.69737432	     -0.18686823	    -23.40775023	    -32.09487460	     11.46445051	    -10.68543124	     -8.44041633	     -6.04409553	      4.21094727
      1.13000000	      1.17503567	      0.67866513	    -10.75618866	     -0.63536075	      0.91067653	      0.80177052	     12.41131451	     -3.16183684	     12.20641541	    -69.73414130	    -18.75484020	      8.50840117	     15.61398181	      0.44890519	    -22.95484282	    -31.31992730	     11.66083459	    -10.68025303	     -8.62212047	     -6.00873390	      3.42159035
      1.14000000	      1.32543250	      0.61937318	    -10.09252152	     -0.62647081	      0.91234835	      0.79863962	     13.97764065	     -2.81284238	     11.88272543	    -70.44862761	    -16.90450283	      8.49538169	     14.53468864	      0.99272922	    -22.42030113	    -30.54021309	     11.83042570	    -10.67538560	     -8.81395813	     -5.87810771	      2.63451991
      1.15000000	      1.46712463	      0.48626401	     -9.37192208	     -0.61760827	      0.91403514	      0.79547357	     15.46472524	     -2.42382279	     11.46797231	    -70.84616534	    -15.00596714	      8.46434848	     13.43945290	      1.43761758	    -21.84990616	    -29.74657155	     11.98419877	    -10.66033054	     -9.01009887	     -5.65724744	      1.84948430
      1.16000000	      1.60746562	      0.29030102	     -8.60048754	     -0.60875919	      0.91571689	      0.79228552	     16.86160895	     -2.00738791	     10.97484653	    -70.92599930	    -13.13307706	      8.44342904	     12.32401636	      1.79138008	    -21.24539443	    -28.94155220	     12.12185302	    -10.62613900	     -9.21328121	     -5.36278569	      1.08708975
      1.17000000	      1.75050526	      0.04897738	     -7.78147303	     -0.59992594	      0.91736424	      0.78910163	     18.16228356	     -1.57338573	     10.42262456	    -70.69153257	    -11.35563498	      8.43461632	     11.19343453	      2.06701528	    -20.61013463	    -28.13383998	     12.24647727	    -10.56389463	     -9.42306330	     -5.01940797	      0.33649179
      1.18000000	      1.88980170	     -0.21884421	     -6.92713314	     -0.59112000	      0.91892872	      0.78591936	     19.37685682	     -1.13782481	      9.83557826	    -70.14995733	     -9.74405800	      8.45333175	     10.06540509	      2.27810743	    -19.95479979	    -27.33519061	     12.36455807	    -10.47578057	     -9.63039632	     -4.64623818	     -0.39523619
      1.19000000	      2.02292987	     -0.49681439	     -6.04561653	     -0.58234712	      0.92037202	      0.78275168	     20.50860013	     -0.71775479	      9.22521855	    -69.31017598	     -8.33521688	      8.47404611	      8.95101391	      2.43947035	    -19.27658803	    -26.55464422	     12.48194887	    -10.36408851	     -9.82861707	     -4.26532606	     -1.09944476
      1.20000000	      2.15004311	     -0.77148229	     -5.14327213	     -0.57360027	      0.92166997	      0.77959947	     21.55584316	     -0.32466477	      8.60710832	    -68.18208847	     -7.15683266	      8.46933607	      7.85421751	      2.56614989	    -18.57421639	    -25.79632521	     12.60311757	    -10.23363862	    -10.01529714	     -3.89223496	     -1.77940898
      1.21000000	      2.28348170	     -1.03641757	     -4.23475722	     -0.56486449	      0.92282801	      0.77648996	     22.49844518	      0.04217133	      8.00339593	    -66.77074734	     -6.18771316	      8.39419139	      6.76161142	      2.66267999	    -17.87160130	    -25.06171566	     12.73101104	    -10.06819108	    -10.20208238	     -3.54010592	     -2.42414376
      1.22000000	      2.37698729	     -1.26554616	     -3.29898847	     -0.55616233	      0.92375578	      0.77335839	     23.39506754	      0.34694603	      7.40715946	    -65.10323964	     -5.45774952	      8.37874909	      5.73567539	      2.76546560	    -17.11318086	    -24.36096568	     12.86783920	     -9.95812868	    -10.33748102	     -3.22705680	     -3.07108107
      1.23000000	      2.44683224	     -1.46249038	     -2.35565645	     -0.54743599	      0.92446056	      0.77023730	     24.21415595	      0.58916816	      6.81856975	    -63.18382317	     -4.81519017	      8.38531012	      4.75096946	      2.86322413	    -16.36501756	    -23.69518960	     13.02665349	     -9.86490791	    -10.43268290	     -2.95754835	     -3.65840242
      1.24000000	      2.55096799	     -1.64829677	     -1.39523940	     -0.53869638	      0.92507330	      0.76710098	     24.87309750	      0.80343442	      6.26092993	    -60.98526738	     -4.40677472	      8.33433034	      3.73010549	      2.94923408	    -15.56829974	    -23.03106098	     13.17427347	     -9.75737190	    -10.56444255	     -2.70105020	     -4.26995292
      1.25000000	      2.64380182	     -1.80504921	     -0.42889549	     -0.52989944	      0.92548760	      0.76399503	     25.42263807	      0.96727099	      5.71923251	    -58.53301443	     -4.09190359	      8.29257867	      2.72571029	      3.03126846	    -14.76167818	    -22.38604080	     13.33037839	     -9.68299794	    -10.66792834	     -2.49111989	     -4.84656414
      1.26000000	      2.79538761	     -1.94741448	      0.52425624	     -0.52103687	      0.92582595	      0.76090177	     25.76563060	      1.11768618	      5.23978327	    -55.80259631	     -3.89650710	      8.18858811	      1.65206141	      3.09771296	    -13.96822850	    -21.74363377	     13.48165866	     -9.63182341	    -10.83289821	     -2.29734708	     -5.39119625
      1.27000000	      2.83335783	     -2.03800752	      1.53834457	     -0.51214937	      0.92577206	      0.75769076	     26.11546357	      1.14991690	      4.69459921	    -52.85668103	     -3.76964661	      8.19933966	      0.73305050	      3.19278075	    -13.08967737	    -21.16712948	     13.65689760	     -9.65557765	    -10.85833099	     -2.15584837	     -5.96247767
      1.28000000	      2.91923775	     -2.11391882	      2.54772130	     -0.50316926	      0.92561487	      0.75449764	     26.26255017	      1.16537191	      4.18515108	    -49.64488475	     -3.73709847	      8.19147669	     -0.23998016	      3.26770471	    -12.22170970	    -20.60778623	     13.84543507	     -9.70379413	    -10.93059431	     -2.03560670	     -6.51895723
      1.29000000	      2.99637626	     -2.15544466	      3.55541130	     -0.49409373	      0.92524622	      0.75129368	     26.28031071	      1.13104778	      3.68032050	    -46.20036556	     -3.75861072	      8.20474659	     -1.20105531	      3.34522567	    -11.36622238	    -20.07598861	     14.05850355	     -9.75127797	    -10.98289097	     -1.95656432	     -7.05858855
      1.30000000	      3.06016554	     -2.15850492	      4.56598505	     -0.48492366	      0.92465237	      0.74805851	     26.17725178	      1.04148200	      3.16853827	    -42.54260682	     -3.81504023	      8.26781604	     -2.14386319	      3.43090022	    -10.52091387	    -19.57628635	     14.30243471	     -9.77648635	    -11.01314752	     -1.92227544	     -7.57917685
      1.31000000	      3.16545543	     -2.12590827	      5.54452087	     -0.47562759	      0.92392329	      0.74487388	     25.88637602	      0.93477351	      2.69509440	    -38.67162313	     -3.84576891	      8.41167931	     -3.13638843	      3.51473802	     -9.72973681	    -19.10127109	     14.56739247	     -9.75677248	    -11.08483971	     -1.93525086	     -8.04951830
      1.32000000	      3.17509092	     -2.05178373	      6.54953815	     -0.46625786	      0.92283954	      0.74159060	     25.59138900	      0.74124421	      2.11952853	    -34.66498627	     -3.91305654	      8.66870579	     -4.00758269	      3.62315488	     -8.89812332	    -18.68981632	     14.86973865	     -9.70185181	    -11.04097603	     -1.99572949	     -8.55156744
      1.33000000	      3.17810732	     -1.94517965	      7.53847647	     -0.45675653	      0.92155484	      0.73829055	     25.19276068	      0.51791418	      1.50894672	    -30.54203472	     -3.95026955	      9.06250213	     -4.88277210	      3.73716160	     -8.11062855	    -18.29493031	     15.18603983	     -9.61282077	    -10.98277713	     -2.09583085	     -9.01242605
      1.34000000	      3.14160447	     -1.80584268	      8.51960939	     -0.44716624	      0.92002754	      0.73498604	     24.74915915	      0.26366505	      0.84121027	    -26.36587377	     -3.97776623	      9.58542283	     -5.70481857	      3.86174223	     -7.32807875	    -17.95831741	     15.51792701	     -9.50299978	    -10.87862713	     -2.24576495	     -9.46209287
      1.35000000	      3.07780209	     -1.64020811	      9.50451074	     -0.43749727	      0.91828242	      0.73166476	     24.26792094	     -0.01045095	      0.10938650	    -22.20936427	     -3.97600000	     10.23342869	     -6.48017494	      3.98626472	     -6.56291119	    -17.69326940	     15.86603359	     -9.38124846	    -10.74796310	     -2.43197365	     -9.90976858
